# xmcd
#
# Track frame offsets: 
#        150
#        19215
#        42260
#        62970
#        87467
#        112150
#        139490
#
# Disc length: 2158 seconds
#
# Revision: 2
# Processed by: cddbd v1.5.2PL0 Copyright (c) Steve Scherf et al.
# Submitted via: ExactAudioCopy v0.99pb5
#
DISCID=69086c07
DTITLE=Teddy Pendergrass - Life Is A Song Worth Singing
DYEAR=1979
DGENRE=R&B
TTITLE0=Life Is A Song Worth Singing
TTITLE1=Only You
TTITLE2=Cold, Cold World
TTITLE3=Get Up, Get Down,Get Funky, Get Loose
TTITLE4=Close The Door
TTITLE5=It Don't Hurt Now
TTITLE6=When Somebody Loves You Back
EXTD=
EXTT0=
EXTT1=
EXTT2=
EXTT3=
EXTT4=
EXTT5=
EXTT6=
PLAYORDER=
